# xmcd
#
# Track frame offsets:
#       150
#       18812
#       32665
#       46705
#       62792
#       77130
#       91104
#       105982
#       122225
#       134012
#       147405
#       160797
#       173967
#       189592
#
# Disc length: 2698 seconds
#
# Revision: 0
# Processed by: cddbd v1.5.1PL0 Copyright (c) Steve Scherf et al.
# Submitted via: WhereIsIt 3.26
#
DISCID=b30a880e
DTITLE=남일해 - 안부
DYEAR=1900
DGENRE=
TTITLE0=안부
TTITLE1=누가 바보인가
TTITLE2=고독한 남자
TTITLE3=시간
TTITLE4=지금 우리는 웃고 있지만
TTITLE5=타인의 눈물
TTITLE6=그 이름 남자
TTITLE7=고향에 가고 싶어
TTITLE8=빨간구두 아가씨
TTITLE9=이정표
TTITLE10=맨발로 뛰어라
TTITLE11=비 내리는 부두
TTITLE12=첫사랑 마도로스
TTITLE13=찾아온 산장
EXTD=
EXTT0=
EXTT1=
EXTT2=
EXTT3=
EXTT4=
EXTT5=
EXTT6=
EXTT7=
EXTT8=
EXTT9=
EXTT10=
EXTT11=
EXTT12=
EXTT13=
PLAYORDER=
